<svg width="12" height="12" viewBox="0 0 12 12" fill="none" xmlns="http://www.w3.org/2000/svg">
<path d="M4.79661 5.98267C4.77082 5.96517 4.74127 5.95141 4.71955 5.92953C3.23643 4.44727 1.75342 2.96459 0.270515 1.48149C-0.0563169 1.15433 -0.090233 0.677107 0.186425 0.325716C0.491843 -0.062252 1.0722 -0.108833 1.43514 0.225832C1.46202 0.25053 1.48734 0.276634 1.51329 0.302425C2.98317 1.77239 4.4529 3.24246 5.92246 4.71263C5.94466 4.73807 5.96513 4.76496 5.98374 4.79313L6.01875 4.80032C6.03719 4.77203 6.05126 4.73936 6.07455 4.71591C7.55475 3.23428 9.03546 1.75311 10.5167 0.272414C10.8449 -0.0558431 11.3203 -0.0905445 11.6721 0.185191C11.7648 0.258423 11.8413 0.350016 11.8969 0.454225C11.9525 0.558433 11.986 0.673008 11.9952 0.790761C12.0044 0.908515 11.9892 1.02691 11.9505 1.13851C11.9119 1.25011 11.8505 1.35251 11.7704 1.43929C11.7473 1.46399 11.7235 1.48774 11.6991 1.51166C10.228 2.9835 8.7563 4.45518 7.28403 5.92671C7.25079 5.95487 7.22089 5.98676 7.19493 6.02175C7.22448 6.03879 7.25949 6.0502 7.28262 6.07333C8.76626 7.55528 10.2492 9.03791 11.7315 10.5212C12.0554 10.8452 12.0894 11.3201 11.8164 11.6709C11.7434 11.7638 11.652 11.8406 11.548 11.8965C11.444 11.9524 11.3295 11.9862 11.2118 11.9957C11.0941 12.0053 10.9756 11.9904 10.8639 11.9521C10.7522 11.9137 10.6497 11.8527 10.5627 11.7728C10.538 11.7498 10.5142 11.7259 10.4903 11.7015C9.02041 10.2316 7.55063 8.7616 6.08096 7.29163C6.05704 7.26772 6.03657 7.24052 6.00718 7.2066C5.97592 7.23661 5.95263 7.25897 5.92903 7.28194C4.44633 8.76473 2.96353 10.2475 1.48062 11.7301C1.15379 12.0568 0.676435 12.0897 0.324908 11.8136C-0.0633509 11.5079 -0.108992 10.9262 0.227062 10.5631C0.250038 10.5383 0.273954 10.5146 0.298337 10.4907C1.77187 9.01702 3.24555 7.54356 4.71939 6.07036C4.74112 6.04864 4.77097 6.03519 4.79754 6.018L4.79661 5.98267Z" fill="#F44336"/>
</svg>
