<svg width="148" height="40" viewBox="0 0 148 40" fill="none" xmlns="http://www.w3.org/2000/svg">
<path d="M96.852 5.14504C96.4444 5.0483 97.0723 4.35349 96.852 4.26553C96.6316 4.17758 92.5888 4.11602 92.5888 4.11602L92.1151 3.7818C91.5816 3.64988 91.0309 3.56725 90.4738 3.53554L91.1017 2.9023H91.9058C91.9058 2.9023 94.4064 1.02015 94.109 0.351718C93.8116 -0.316709 78.0809 0.0790699 63.6612 0.615571C49.2414 1.15207 38.0713 2.37459 37.3773 2.46254C36.6833 2.55049 37.0579 2.7176 36.5401 3.04302C36.0224 3.36844 35.6699 3.40362 35.9893 3.51795C36.3088 3.63229 35.9893 3.84337 35.9893 3.84337C34.7996 3.88735 34.4471 4.41505 34.8877 4.76685C35.1007 5.00577 35.3929 5.19246 35.7316 5.3059C36.0702 5.41934 36.4418 5.45501 36.8045 5.4089C38.4772 5.32426 40.155 5.32426 41.8277 5.4089C41.8277 5.4089 41.9379 7.44056 42.2904 6.95683C42.6429 6.4731 51.5217 6.649 57.8668 6.19166C60.3895 6.00696 66.1948 5.9454 72.2976 5.9454C67.5172 8.89778 62.9973 12.1097 58.7701 15.5584C53.119 20.3957 35.075 35.7871 35.9453 37.124C35.9453 37.124 35.6589 37.8364 36.3529 38.0035L37.1129 37.5726L37.862 38.0211C37.862 38.0211 41.7066 34.204 41.982 34.0457C41.982 34.0457 39.5254 37.1504 40.5609 36.8338C40.2074 37.1994 39.9251 37.6057 39.7237 38.0387C39.7237 38.0387 37.7188 38.2322 37.7078 39.0589H36.1325C35.6478 39.0589 35.8571 39.8241 35.8571 39.8241C35.8571 39.8241 56.6441 38.8566 61.7444 39.1205C66.8448 39.3843 82.6745 40 82.6745 40C82.6745 40 83.9083 39.7361 83.71 39.4635C83.1247 38.9415 82.3576 38.571 81.5069 38.3993C80.7358 38.2938 60.2132 37.4758 50.2879 37.8716L50.4752 37.4054C56.8766 36.6188 63.3626 36.3624 69.8301 36.6403C86.4199 37.08 94.12 37.8364 94.12 37.8364C94.12 37.8364 94.2632 37.3439 94.6708 37.4054C95.0784 37.467 95.0233 36.9129 94.6708 36.7986C94.3183 36.6842 94.4064 36.2445 94.6708 36.2533C94.971 36.235 95.2692 36.1997 95.5631 36.1478C95.5631 36.1478 95.8495 35.3826 95.5631 35.2682C95.2767 35.1539 68.1777 34.3184 53.5486 34.8725C55.1152 33.18 56.5606 31.4182 57.8778 29.5954C58.1422 28.8742 82.5093 9.76247 87.136 6.17407C88.6263 6.16725 90.1159 6.22891 91.5974 6.35877C92.0821 6.60503 92.1482 6.71937 92.2914 6.35877C92.3955 6.12341 92.565 5.90993 92.7871 5.73432C93.9083 5.81693 95.0367 5.81693 96.158 5.73432C96.6427 5.56721 97.2706 5.24179 96.852 5.14504ZM87.5215 3.38603H87.1139L87.7308 2.83193H88.1274L87.5215 3.38603ZM80.2731 3.33325L80.6586 2.75278H81.9255L81.4408 3.32446L80.2731 3.33325ZM37.0469 4.47662C36.0885 4.6877 36.5952 4.58216 35.9453 4.47662C35.2953 4.37108 35.4165 4.47662 36.2868 4.1512C37.157 3.82578 53.6257 2.83193 62.9011 2.72639C67.1973 2.68242 73.7297 2.72639 79.513 2.72639L78.7859 3.33325C62.6477 3.53554 37.7298 4.3271 37.0469 4.47662ZM42.9624 37.7309H41.7947L42.3455 37.168L43.1056 37.2559L42.9624 37.7309ZM49.1863 37.8716C48.0847 37.9332 47.2255 38.0035 46.5425 38.1003C47.3779 37.8746 48.2318 37.6953 49.0982 37.5638L49.1863 37.8716ZM55.5315 30.2638L49.9244 35.0484C49.2414 35.0923 48.6245 35.1451 48.0517 35.1979C55.201 27.511 78.6097 10.4045 78.6097 10.4045C69.764 16.8073 55.5315 30.2638 55.5315 30.2638ZM46.7188 35.3562H46.3773C45.2757 35.5321 44.4054 35.6904 43.7004 35.8311C45.1316 34.4196 46.7288 33.1208 48.4703 31.9525C50.9908 30.2459 53.3475 28.3908 55.5205 26.4028C55.5205 26.4028 55.3772 26.1301 55.1018 26.1213C54.8265 26.1125 49.1313 30.3078 47.9415 30.9498C47.9415 30.9498 66.1067 13.3597 79.7443 6.02455H81.7382C72.0002 11.5479 50.6074 31.6798 46.7078 35.3562H46.7188Z" fill="#E30C13"/>
<path d="M27.088 30.5365H21.6682L23.5739 21.8821H7.32555L5.4198 30.5365H0L4.78088 8.90933H10.1897L8.28393 17.6077H24.5323L26.4381 8.90933H31.8579L27.088 30.5365Z" fill="#212121"/>
<path d="M36.11 30.5365H30.6902L35.4711 8.90933H40.8909L36.11 30.5365Z" fill="#212121"/>
<path d="M117.572 13.2101H95.9041L94.9457 17.6077H111.26L110.302 21.9261H93.9983L93.04 26.2533H114.708L113.75 30.5804H86.6728L91.4316 8.90933H118.531L117.572 13.2101Z" fill="#212121"/>
<path d="M147.789 15.4001L147.315 17.6077C146.36 21.9232 143.173 24.0838 137.753 24.0897L144.451 30.5805H136.74L130.053 24.0897H124.182L122.75 30.5805H117.33L122.111 8.95332H141.069C146.496 8.924 148.736 11.0729 147.789 15.4001ZM142.369 15.4001C142.688 13.9577 141.95 13.2365 140.166 13.2365H126.605L125.173 19.7185H138.712C139.484 19.7748 140.253 19.5842 140.85 19.1885C141.447 18.7928 141.823 18.2243 141.895 17.6077L142.369 15.4001Z" fill="#212121"/>
</svg>
