<svg width="40" height="40" viewBox="0 0 40 40" fill="none" xmlns="http://www.w3.org/2000/svg">
<circle cx="20" cy="20" r="19.5" fill="white" stroke="#BBBBBB"/>
<path d="M17.3854 20.0074C17.4401 20.0457 17.4766 20.0641 17.5037 20.0917C19.23 21.8169 20.9557 23.5426 22.6809 25.2688C23.0483 25.6363 23.1037 26.1662 22.8196 26.5731C22.7394 26.688 22.6359 26.7848 22.5159 26.857C22.3958 26.9293 22.2619 26.9755 22.1228 26.9926C21.9837 27.0096 21.8425 26.9972 21.7085 26.9561C21.5746 26.915 21.4507 26.8461 21.3451 26.754C21.3131 26.7261 21.283 26.696 21.2529 26.6659C19.2799 24.693 17.3073 22.72 15.3348 20.7468C14.8897 20.3016 14.8882 19.7014 15.3314 19.258C17.3105 17.2785 19.2897 15.2991 21.2689 13.3197C21.5877 13.0009 22.0144 12.9145 22.4064 13.0877C23.0155 13.3566 23.1938 14.1456 22.7589 14.6497C22.7252 14.6887 22.6885 14.7252 22.6521 14.7617C20.9393 16.4749 19.2263 18.1875 17.513 19.8994C17.4835 19.9301 17.4483 19.9542 17.3854 20.0074Z" fill="#999999"/>
</svg>
