<svg width="72" height="24" viewBox="0 0 72 24" fill="none" xmlns="http://www.w3.org/2000/svg">
<path d="M47.1172 3.08703C46.9189 3.02898 47.2243 2.61209 47.1172 2.55932C47.01 2.50655 45.0432 2.46961 45.0432 2.46961L44.8128 2.26908C44.5532 2.18993 44.2853 2.14035 44.0143 2.12133L44.3197 1.74138H44.7109C44.7109 1.74138 45.9275 0.612087 45.7828 0.211031C45.6381 -0.190026 37.9853 0.047442 30.9703 0.369342C23.9553 0.691243 18.5212 1.42475 18.1836 1.47752C17.8459 1.5303 18.0281 1.63056 17.7763 1.82581C17.5244 2.02106 17.3529 2.04217 17.5083 2.11077C17.6637 2.17937 17.5083 2.30602 17.5083 2.30602C16.9295 2.33241 16.758 2.64903 16.9724 2.86011C17.076 3.00346 17.2182 3.11548 17.3829 3.18354C17.5477 3.2516 17.7284 3.27301 17.9049 3.24534C18.7186 3.19456 19.5349 3.19456 20.3486 3.24534C20.3486 3.24534 20.4022 4.46434 20.5737 4.1741C20.7452 3.88386 25.0646 3.9894 28.1514 3.715C29.3786 3.60418 32.2029 3.56724 35.1718 3.56724C32.8462 5.33867 30.6473 7.26584 28.5909 9.33506C25.8417 12.2374 17.0635 21.4723 17.4869 22.2744C17.4869 22.2744 17.3475 22.7018 17.6852 22.8021L18.0549 22.5435L18.4194 22.8127C18.4194 22.8127 20.2897 20.5224 20.4236 20.4274C20.4236 20.4274 19.2286 22.2902 19.7323 22.1003C19.5603 22.3197 19.423 22.5634 19.325 22.8232C19.325 22.8232 18.3497 22.9393 18.3443 23.4354H17.578C17.3422 23.4354 17.444 23.8945 17.444 23.8945C17.444 23.8945 27.5566 23.314 30.0378 23.4723C32.5191 23.6306 40.22 24 40.22 24C40.22 24 40.8203 23.8417 40.7238 23.6781C40.4391 23.3649 40.0658 23.1426 39.652 23.0396C39.2768 22.9763 29.2929 22.4855 24.4644 22.723L24.5555 22.4433C27.6697 21.9713 30.8251 21.8174 33.9714 21.9842C42.0421 22.248 45.7881 22.7018 45.7881 22.7018C45.7881 22.7018 45.8578 22.4063 46.0561 22.4433C46.2544 22.4802 46.2276 22.1478 46.0561 22.0792C45.8846 22.0106 45.9275 21.7467 46.0561 21.752C46.2021 21.741 46.3472 21.7198 46.4902 21.6887C46.4902 21.6887 46.6295 21.2295 46.4902 21.1609C46.3508 21.0923 33.1675 20.591 26.0507 20.9235C26.8128 19.908 27.516 18.8509 28.1568 17.7572C28.2854 17.3245 40.1397 5.85748 42.3905 3.70444C43.1155 3.70035 43.8402 3.73735 44.5609 3.81526C44.7967 3.96302 44.8288 4.03162 44.8985 3.81526C44.9491 3.67405 45.0316 3.54596 45.1397 3.44059C45.6851 3.49016 46.2341 3.49016 46.7795 3.44059C47.0153 3.34033 47.3208 3.14507 47.1172 3.08703ZM42.578 2.03162H42.3797L42.6799 1.69916H42.8728L42.578 2.03162ZM39.0518 1.99995L39.2393 1.65167H39.8556L39.6198 1.99468L39.0518 1.99995ZM18.0228 2.68597C17.5565 2.81262 17.8031 2.74929 17.4869 2.68597C17.1707 2.62265 17.2296 2.68597 17.653 2.49072C18.0764 2.29547 26.0882 1.69916 30.6005 1.63584C32.6906 1.60945 35.8685 1.63584 38.682 1.63584L38.3283 1.99995C30.4773 2.12133 18.355 2.59626 18.0228 2.68597ZM20.9006 22.6385H20.3325L20.6005 22.3008L20.9703 22.3536L20.9006 22.6385ZM23.9285 22.723C23.3926 22.7599 22.9746 22.8021 22.6423 22.8602C23.0487 22.7247 23.4641 22.6172 23.8856 22.5383L23.9285 22.723ZM27.0153 18.1583L24.2875 21.029C23.9553 21.0554 23.6552 21.0871 23.3765 21.1187C26.8545 16.5066 38.2425 6.24271 38.2425 6.24271C33.9392 10.0844 27.0153 18.1583 27.0153 18.1583ZM22.728 21.2137H22.5619C22.026 21.3193 21.6026 21.4142 21.2597 21.4987C21.9559 20.6517 22.7329 19.8725 23.5801 19.1715C24.8063 18.1476 25.9528 17.0345 27.0099 15.8417C27.0099 15.8417 26.9403 15.6781 26.8063 15.6728C26.6723 15.6675 23.9017 18.1847 23.3229 18.5699C23.3229 18.5699 32.16 8.0158 38.7945 3.61473H39.7645C35.0271 6.92872 24.6198 19.0079 22.7227 21.2137H22.728Z" fill="#E30C13"/>
<path d="M13.1779 18.3219H10.5413L11.4684 13.1293H3.56378L2.63666 18.3219H0L2.32584 5.34559H4.95714L4.03002 10.5646H11.9346L12.8618 5.34559H15.4984L13.1779 18.3219Z" fill="#212121"/>
<path d="M17.567 18.3219H14.9304L17.2562 5.34559H19.8928L17.567 18.3219Z" fill="#212121"/>
<path d="M57.1973 7.92607H46.656L46.1898 10.5646H54.1266L53.6603 13.1556H45.7289L45.2627 15.7519H55.804L55.3377 18.3483H42.1651L44.4803 5.34559H57.6636L57.1973 7.92607Z" fill="#212121"/>
<path d="M71.8972 9.24007L71.6668 10.5646C71.2024 13.1539 69.6518 14.4503 67.0151 14.4538L70.2735 18.3483H66.5221L63.2691 14.4538H60.4128L59.7161 18.3483H57.0794L59.4053 5.37199H68.6282C71.2684 5.3544 72.3581 6.64376 71.8972 9.24007ZM69.2606 9.24007C69.416 8.37463 69.0569 7.94192 68.1888 7.94192H61.5918L60.8951 11.8311H67.4814C67.8572 11.8649 68.2313 11.7505 68.5216 11.5131C68.812 11.2757 68.9948 10.9346 69.0301 10.5646L69.2606 9.24007Z" fill="#212121"/>
</svg>
