<?xml version="1.0" encoding="utf-8"?>
<svg version="1.1" xmlns="http://www.w3.org/2000/svg" xmlns:xlink="http://www.w3.org/1999/xlink" width="752" height="50" viewBox="0 0 752 50" x="0" y="0">
    <svg width="48" height="49" viewBox="0 0 48 49" fill="none" xmlns="http://www.w3.org/2000/svg">
    <path d="M46.8293 43.5018H42.6952V16.9996C42.6952 16.3513 42.17 15.8239 41.5245 15.8239H38.8535C38.4655 15.8239 38.1511 16.1397 38.1511 16.5293C38.1511 16.9189 38.4655 17.2347 38.8535 17.2347H41.2904V43.5018H34.6185V17.2347H35.5507C35.9386 17.2347 36.253 16.9189 36.253 16.5293C36.253 16.1397 35.9386 15.8239 35.5507 15.8239H34.3844C33.7389 15.8239 33.2137 16.3513 33.2137 16.9996V43.5019H28.7408V25.9304C28.7408 25.2821 28.2157 24.7547 27.5702 24.7547H20.43C19.7845 24.7547 19.2593 25.2821 19.2593 25.9304V43.5018H14.7863V33.6456C14.7863 32.9973 14.2612 32.4699 13.6157 32.4699H6.47559C5.83012 32.4699 5.30494 32.9973 5.30494 33.6456V36.8002C5.30494 37.1898 5.61938 37.5056 6.00731 37.5056C6.39525 37.5056 6.70969 37.1898 6.70969 36.8002V33.8808H13.3815V43.5019H6.70969V40.0806C6.70969 39.691 6.39525 39.3752 6.00731 39.3752C5.61938 39.3752 5.30494 39.691 5.30494 40.0806V43.5019H1.17066C0.525188 43.5018 0 44.0293 0 44.6776V46.927C0 47.5753 0.525188 48.1027 1.17066 48.1027H46.8293C47.4748 48.1027 48 47.5753 48 46.927V44.6776C48 44.0293 47.4748 43.5018 46.8293 43.5018ZM20.6641 26.1656H27.336V43.5019H20.6641V26.1656ZM46.5952 46.6919H1.40484V44.9128H46.5952L46.5952 46.6919Z" fill="#E30C13"/>
    <path d="M5.83558 25.9342L5.43376 28.287C5.32173 28.9431 5.58526 29.5936 6.12142 29.9848C6.42442 30.2059 6.77889 30.3183 7.1357 30.3183C7.41039 30.3183 7.68648 30.2516 7.94167 30.117L10.0455 29.0062L12.1494 30.117C12.7359 30.4267 13.4333 30.376 13.9696 29.9849C14.5058 29.5936 14.7693 28.943 14.6573 28.287L14.2555 25.9342L15.9575 24.268C16.432 23.8035 16.5997 23.1216 16.3949 22.4886C16.1901 21.8555 15.6555 21.4028 14.9996 21.3071L12.6475 20.9638L11.5956 18.8232C11.3022 18.2263 10.7083 17.8556 10.0455 17.8556C9.3828 17.8556 8.78889 18.2264 8.49564 18.8232L7.44376 20.9638L5.09148 21.3071C4.43561 21.4028 3.90105 21.8554 3.6962 22.4886C3.49145 23.1217 3.65898 23.8035 4.13355 24.2679L5.83558 25.9342ZM5.03223 22.9245C5.05098 22.8667 5.1138 22.7296 5.29351 22.7033L7.75314 22.3443C8.14342 22.2875 8.48064 22.0414 8.6553 21.6861L9.75536 19.4477C9.8357 19.2841 9.98505 19.2664 10.0455 19.2664C10.106 19.2664 10.2553 19.284 10.3358 19.4477L11.4358 21.6861C11.6104 22.0413 11.9476 22.2874 12.3378 22.3443L14.7976 22.7033C14.9773 22.7296 15.0401 22.8667 15.0589 22.9245C15.0776 22.9824 15.1071 23.1305 14.977 23.2577L13.1972 25.0001C12.9146 25.2764 12.7858 25.6747 12.8526 26.065L13.2728 28.5254C13.3034 28.7052 13.1929 28.8077 13.144 28.8434C13.0949 28.8791 12.9637 28.9531 12.8032 28.8681L10.603 27.7064C10.4285 27.6142 10.237 27.5682 10.0455 27.5682C9.85408 27.5682 9.66255 27.6143 9.48798 27.7064L7.28786 28.8681C7.12708 28.953 6.99601 28.8791 6.94708 28.8434C6.89814 28.8076 6.78761 28.7052 6.81826 28.5254L7.23845 26.0651C7.3052 25.6747 7.1763 25.2765 6.89401 25.0002L5.11408 23.2578C4.98405 23.1305 5.01348 22.9824 5.03223 22.9245Z" fill="#E30C13"/>
    <path d="M19.79 17.3515L19.3882 19.7044C19.2761 20.3604 19.5396 21.0109 20.0757 21.4021C20.3787 21.6232 20.7332 21.7355 21.0901 21.7355C21.3648 21.7355 21.6409 21.6689 21.8961 21.5343L23.9999 20.4235L26.1037 21.5343C26.6903 21.8441 27.3878 21.7934 27.9242 21.4021C28.4603 21.0109 28.7238 20.3603 28.6117 19.7044L28.2098 17.3515L29.912 15.6853C30.3865 15.2207 30.5541 14.5389 30.3493 13.9059C30.1446 13.2728 29.6099 12.8202 28.9539 12.7245L26.6018 12.3812L25.5499 10.2405C25.2565 9.64367 24.6626 9.2729 23.9999 9.2729C23.3372 9.2729 22.7433 9.64367 22.4499 10.2405L21.3981 12.3812L19.0458 12.7245C18.39 12.8202 17.8553 13.2728 17.6505 13.9059C17.4457 14.5388 17.6132 15.2207 18.0878 15.6854L19.79 17.3515ZM18.9865 14.3418C19.0053 14.284 19.0681 14.1469 19.2478 14.1207L21.7078 13.7617C22.098 13.7046 22.435 13.4587 22.6096 13.1035L23.7097 10.8649C23.79 10.7014 23.9393 10.6838 23.9998 10.6838C24.0603 10.6838 24.2096 10.7014 24.29 10.8649L25.3902 13.1038C25.5647 13.4588 25.9018 13.7046 26.2921 13.7617L28.7519 14.1207C28.9316 14.1469 28.9944 14.2842 29.0132 14.3419C29.0318 14.3997 29.0613 14.5477 28.9312 14.675L27.1513 16.4175C26.869 16.694 26.7403 17.0919 26.8069 17.4824L27.2271 19.9428C27.2577 20.1225 27.1472 20.225 27.0982 20.2607C27.0493 20.2963 26.9181 20.3705 26.7574 20.2853L24.5573 19.1238C24.3829 19.0316 24.1913 18.9855 23.9998 18.9855C23.8084 18.9855 23.6168 19.0316 23.4423 19.1237L21.2422 20.2853C21.0813 20.3704 20.9502 20.2963 20.9014 20.2607C20.8524 20.225 20.742 20.1225 20.7727 19.9428L21.1928 17.4824C21.2595 17.0921 21.1308 16.6941 20.8483 16.4174L19.0684 14.6751C18.9384 14.5477 18.9679 14.3997 18.9865 14.3418Z" fill="#E30C13"/>
    <path d="M33.7444 8.18135L33.3425 10.5341C33.2304 11.1901 33.494 11.8407 34.0301 12.2319C34.5664 12.6231 35.2637 12.6737 35.8505 12.3641L37.9543 11.2533L40.0581 12.3641C40.3133 12.4988 40.5894 12.5653 40.8642 12.5653C41.2211 12.5653 41.5756 12.453 41.8785 12.2319C42.4147 11.8407 42.6782 11.1901 42.5661 10.5341L42.1642 8.18135L43.8663 6.51512C44.3409 6.05057 44.5085 5.36871 44.3037 4.73581C44.099 4.10273 43.5643 3.65004 42.9084 3.55429L40.5562 3.21091L39.5043 1.07034C39.2109 0.473498 38.617 0.102722 37.9543 0.102722C37.2916 0.102722 36.6977 0.473498 36.4043 1.07034L35.3524 3.21091L33.0003 3.55429C32.3444 3.64995 31.8097 4.10263 31.6049 4.73572C31.4001 5.36862 31.5677 6.05057 32.0422 6.51512L33.7444 8.18135ZM32.941 5.17174C32.9597 5.11393 33.0225 4.97675 33.2023 4.95048L35.6618 4.59148C36.0524 4.53461 36.3897 4.28859 36.5641 3.93335L37.6641 1.69485C37.7446 1.53131 37.8939 1.5137 37.9543 1.5137C38.0147 1.5137 38.1642 1.53131 38.2445 1.69485L39.3446 3.93344C39.5192 4.28859 39.8565 4.5347 40.2465 4.59148L42.7064 4.95048C42.8861 4.97675 42.949 5.11403 42.9677 5.17174C42.9863 5.22955 43.0158 5.37756 42.8857 5.50486L41.1057 7.24745C40.8235 7.52388 40.6947 7.92187 40.7613 8.31232L41.1815 10.7726C41.2121 10.9525 41.1016 11.0549 41.0526 11.0906C41.0038 11.1264 40.8726 11.2003 40.7118 11.1153L38.5117 9.95369C38.3372 9.86152 38.1456 9.81538 37.9542 9.81538C37.7627 9.81538 37.5712 9.86152 37.3968 9.9536L35.1966 11.1153C35.036 11.2003 34.9047 11.1262 34.8558 11.0906C34.8068 11.0548 34.6964 10.9525 34.727 10.7726L35.1471 8.31251C35.2139 7.92215 35.0852 7.52407 34.8027 7.24735L33.0228 5.50486C32.8927 5.37756 32.9223 5.22946 32.941 5.17174Z" fill="#E30C13"/>
    </svg>
    <svg width="48" height="38" viewBox="0 0 48 38" fill="none" xmlns="http://www.w3.org/2000/svg" x="60" y="0">
    <path d="M33.6 0C31.8352 0 30.4 1.45049 30.4 3.23401V3.8186L11.7025 11.3766C11.3993 11.5003 11.2001 11.797 11.2001 12.1277V23.4468C11.2001 23.7775 11.3993 24.0742 11.7025 24.1971L30.4 31.7551V32.3405C30.4 34.1241 31.8353 35.5745 33.6 35.5745C35.3647 35.5745 36.8 34.124 36.8 32.3405V3.23401C36.8 1.45039 35.3648 0 33.6 0ZM35.2 32.3404C35.2 33.2321 34.4825 33.9574 33.6 33.9574C32.7175 33.9574 32 33.2322 32 32.3404V31.2084C32 30.8769 31.8008 30.5803 31.4968 30.4574L12.8 22.8994V12.675L31.4968 5.11702C31.8009 4.99328 32 4.69662 32 4.36596V3.23401C32 2.34225 32.7175 1.61696 33.6 1.61696C34.4825 1.61696 35.2 2.34215 35.2 3.23401V32.3404Z" fill="#E30C13"/>
    <path d="M12 11.3191H6.40002C2.87118 11.3191 0 14.2208 0 17.7872C0 21.3536 2.87118 24.2553 6.40002 24.2553H12C12.4415 24.2553 12.7999 23.8939 12.7999 23.4468V12.1277C12.7999 11.6813 12.4415 11.3191 12 11.3191ZM11.2 22.6383H6.40002C3.7528 22.6383 1.60003 20.4626 1.60003 17.7872C1.60003 15.1118 3.7528 12.9361 6.40002 12.9361H11.2V22.6383Z" fill="#E30C13"/>
    <path d="M41.0528 14.5944L36.2528 12.9773C36.0081 12.8957 35.7416 12.9369 35.532 13.089C35.3232 13.2409 35.2 13.4851 35.2 13.7447V21.8298C35.2 22.0893 35.3232 22.3334 35.532 22.4863C35.6704 22.5865 35.8344 22.6383 36 22.6383C36.0849 22.6383 36.1704 22.6245 36.2528 22.5962L41.0528 20.9791C41.38 20.87 41.6001 20.5611 41.6001 20.2126V15.3616C41.6 15.0132 41.38 14.7052 41.0528 14.5944ZM40 19.6297L36.8001 20.7075V14.866L40 15.9438V19.6297Z" fill="#E30C13"/>
    <path d="M15.9256 33.5474L15.1225 32.7349L12.7761 23.2511C12.6873 22.8913 12.3673 22.6382 12.0001 22.6382H5.60003C5.35525 22.6382 5.12481 22.7515 4.97284 22.9439C4.82087 23.1379 4.76481 23.391 4.82087 23.632L8.02083 37.3767C8.10802 37.7478 8.43521 38 8.79924 38C8.84968 38 8.90002 37.9952 8.95121 37.9846L14.9592 36.8123C14.9671 36.8107 14.9752 36.8091 14.9832 36.8075C15.3352 36.7274 15.6568 36.5496 15.9128 36.2949C16.2776 35.9302 16.48 35.4451 16.4832 34.9261C16.4864 34.4078 16.2897 33.9194 15.9256 33.5474ZM14.7888 35.1435C14.748 35.1847 14.6969 35.213 14.6408 35.2275L9.40318 36.2503L6.61037 24.2552H11.3752L13.6248 33.3445C13.66 33.4868 13.7328 33.617 13.8352 33.7205L14.792 34.6874C14.8728 34.7691 14.884 34.8653 14.884 34.9163C14.8832 34.9656 14.8705 35.0618 14.7888 35.1435Z" fill="#E30C13"/>
    <path d="M48 16.9787H43.2V18.5958H48V16.9787Z" fill="#E30C13"/>
    <path d="M46.7862 7.39357L42.7867 9.81957L43.61 11.2059L47.6096 8.77994L46.7862 7.39357Z" fill="#E30C13"/>
    <path d="M43.6171 24.37L42.7938 25.7567L46.7939 28.1822L47.6171 26.7956L43.6171 24.37Z" fill="#E30C13"/>
    <path d="M32 4.04249H30.3999V31.5318H32V4.04249Z" fill="#E30C13"/>
    <path d="M9.60002 14.5532H7.99999V17.7872H9.60002V14.5532Z" fill="#E30C13"/>
    <path d="M6.3999 14.5532H4.79987V17.7872H6.3999V14.5532Z" fill="#E30C13"/>
    </svg>
    <svg width="48" height="48" viewBox="0 0 48 48" fill="none" xmlns="http://www.w3.org/2000/svg" x="120" y="0">
    <path d="M20.7383 7.20434C20.3496 4.89123 18.3462 3.19783 16.0009 3.19993C13.3513 3.20253 11.204 5.35003 11.2014 7.99994C11.2014 8.44174 11.5596 8.79994 12.0013 8.79994C12.4431 8.79994 12.8012 8.44174 12.8012 7.99994C12.8012 6.23264 14.2338 4.79993 16.0009 4.79993C17.768 4.79993 19.2005 6.23264 19.2005 7.99994C19.2005 9.76724 17.768 11.1999 16.0009 11.1999C15.5591 11.1999 15.201 11.5581 15.201 11.9999V15.1999C15.201 15.6417 15.5591 15.9999 16.0009 15.9999C16.4426 15.9999 16.8008 15.6417 16.8008 15.1999V12.7335C19.4148 12.2941 21.1777 9.81864 20.7383 7.20434Z" fill="#E30C13"/>
    <path d="M16.6824 19.5879C16.7555 19.4713 16.7964 19.3374 16.8008 19.1999V18.3999C16.8008 17.9581 16.4426 17.5999 16.0009 17.5999C15.5591 17.5999 15.201 17.9581 15.201 18.3999V19.1999C15.2047 19.3452 15.2491 19.4865 15.329 19.6079C15.2563 19.726 15.2163 19.8613 15.213 19.9999C15.213 20.4417 15.5711 20.7999 16.0129 20.7999C16.4546 20.7999 16.8128 20.4417 16.8128 19.9999C16.809 19.853 16.7638 19.7102 16.6824 19.5879Z" fill="#E30C13"/>
    <path d="M42.7666 17.6H31.9991V5.60001C31.9991 2.3552 29.9809 0 27.1996 0H5.23338C2.24583 0.1086 -0.0920998 2.6117 0.00278914 5.60001V24.8C0.00278914 25.2418 0.360947 25.6 0.802696 25.6H2.59849L0.145173 29.1448C-0.105498 29.5086 -0.0138089 30.0068 0.349949 30.2575C0.586121 30.4202 0.891286 30.4441 1.14986 30.32L10.9527 25.6H16.0009V37.6001C16.0009 40.8449 18.0191 43.2001 20.8004 43.2001H37.0473L46.8501 47.9201C47.2482 48.1117 47.7262 47.9442 47.9178 47.5461C48.0425 47.2869 48.0185 46.9807 47.8548 46.7441L45.4015 43.2001H47.1973C47.6391 43.2001 47.9972 42.8419 47.9972 42.4001V23.2C48.0921 20.2116 45.7542 17.7086 42.7666 17.6ZM10.7703 24C10.6504 24.0003 10.532 24.0277 10.424 24.08L3.18402 27.5656L4.78383 25.2552C5.0352 24.8919 4.94451 24.3935 4.58116 24.1421C4.44727 24.0494 4.28829 23.9999 4.12551 24H1.6026V5.60001C1.50831 3.49541 3.12973 1.7091 5.23338 1.6H27.1996C29.3978 1.6 30.3993 3.67361 30.3993 5.60001V20C30.3993 21.9264 29.3978 24 27.1996 24H10.7703ZM46.3974 23.2V41.6001H43.8745C43.4327 41.6002 43.0747 41.9585 43.0749 42.4004C43.075 42.563 43.1245 42.7217 43.217 42.8553L44.8168 45.1657L37.576 41.6801C37.468 41.6278 37.3496 41.6004 37.2297 41.6001H20.8004C18.6022 41.6001 17.6007 39.5265 17.6007 37.6001V25.6H27.1996C29.9809 25.6 31.9991 23.2448 31.9991 20V19.2H42.7666C44.8702 19.3091 46.4917 21.0954 46.3974 23.2Z" fill="#E30C13"/>
    <path d="M39.1445 38.9104L33.5452 24.5111C33.3856 24.0991 32.9223 23.8945 32.5104 24.054C32.3005 24.1353 32.1346 24.3012 32.0533 24.5111L26.454 38.9112C26.2941 39.3232 26.4984 39.7869 26.9103 39.9468C27.3223 40.1067 27.7859 39.9024 27.9458 39.4904L29.9248 34.4H35.6737L37.6527 39.4896C37.8126 39.9016 38.2762 40.1059 38.6882 39.946C39.1001 39.786 39.3044 39.3224 39.1445 38.9104ZM30.5471 32.8L32.7988 27.0079L35.0514 32.8H30.5471Z" fill="#E30C13"/>
    <path d="M15.201 41.6H13.6012C13.6038 43.808 15.393 45.5974 17.6007 45.6V44C16.2754 44 15.201 42.9255 15.201 41.6Z" fill="#E30C13"/>
    <path d="M12.0014 44H10.4016C10.4042 46.208 12.1934 47.9974 14.4011 48V46.4C13.0758 46.4 12.0014 45.3255 12.0014 44Z" fill="#E30C13"/>
    </svg>
    <svg width="46" height="48" viewBox="0 0 46 48" fill="none" xmlns="http://www.w3.org/2000/svg" x="180" y="0">
    <path fill-rule="evenodd" clip-rule="evenodd" d="M42.5886 15.6268C42.5906 15.635 42.5927 15.6432 42.5965 15.6512C44.4581 18.8192 45.5287 22.488 45.5287 26.4C45.5287 30.312 44.4581 33.9808 42.5957 37.1488C42.592 37.1565 42.5901 37.1644 42.5883 37.1723C42.5873 37.1765 42.5863 37.1808 42.585 37.185C42.5835 37.19 42.5815 37.1951 42.5786 37.2C42.5704 37.2142 42.5602 37.2259 42.55 37.2375L42.5449 37.2434L42.5367 37.2532L42.5325 37.2585L42.5297 37.2624C40.6062 40.4912 37.8542 43.188 34.5608 45.0712C34.5536 45.0761 34.5478 45.082 34.542 45.0878C34.5354 45.0946 34.5288 45.1013 34.5201 45.1064C34.5168 45.1083 34.5134 45.1101 34.51 45.1118L34.5058 45.1138C34.5042 45.1145 34.501 45.1159 34.501 45.1159C34.492 45.1198 34.4828 45.123 34.4736 45.1262C34.4635 45.1297 34.4533 45.1332 34.4434 45.1376C31.2618 46.9312 27.5843 47.9696 23.6647 47.996C23.6582 47.996 23.6525 48 23.646 48C23.6436 48 23.6415 47.9993 23.6392 47.9985C23.6368 47.9977 23.6343 47.9968 23.6313 47.9968L23.6218 47.997L23.6067 47.9975L23.5842 47.9983C23.5608 47.9991 23.5369 48 23.5131 48C21.8635 48 20.201 47.8144 18.5734 47.4464C18.1348 47.348 17.86 46.9184 17.9611 46.488C18.0614 46.0576 18.4992 45.784 18.9379 45.8872C20.2238 46.1768 21.5301 46.3368 22.8322 46.3808V44.8C22.8322 44.3576 23.1967 44 23.6476 44C24.0985 44 24.463 44.3576 24.463 44.8V46.3744C27.5297 46.236 30.4195 45.428 32.9888 44.0984L32.1848 42.7328C31.9589 42.3504 32.0927 41.8608 32.4832 41.64C32.8714 41.4184 33.3712 41.5488 33.5971 41.9328L34.3986 43.2952C36.9499 41.7072 39.1173 39.5808 40.7358 37.0776L39.3472 36.2912C38.9574 36.0704 38.8237 35.5816 39.0488 35.1984C39.2738 34.8144 39.7728 34.6848 40.1626 34.9056L41.5545 35.6944C42.9284 33.1376 43.7544 30.256 43.8775 27.1992H42.2671C41.8162 27.1992 41.4517 26.8416 41.4517 26.3992C41.4517 25.9568 41.8162 25.5992 42.2671 25.5992H43.8775C43.7544 22.5424 42.9284 19.6608 41.5545 17.104L40.1626 17.8928C40.0346 17.9656 39.8943 18 39.7557 18C39.4736 18 39.2004 17.8568 39.0488 17.6C38.8229 17.2168 38.9566 16.728 39.3456 16.5072L40.7342 15.7208C39.1156 13.2176 36.9483 11.0912 34.397 9.5032L33.5954 10.8656C33.4446 11.1224 33.1706 11.2656 32.8885 11.2656C32.7499 11.2656 32.6096 11.2312 32.4816 11.1584C32.0918 10.9376 31.9581 10.4488 32.1832 10.0656L32.9871 8.7C30.4178 7.3704 27.5281 6.5624 24.4614 6.424V8C24.4614 8.4424 24.0969 8.8 23.646 8.8C23.1951 8.8 22.8306 8.4424 22.8306 8V6.4184C22.5909 6.4296 22.3446 6.444 22.0772 6.464L21.2023 6.5304C20.4431 6.616 19.6856 6.7432 18.9355 6.912C18.4968 7.012 18.0589 6.7416 17.9586 6.3112C17.8575 5.8808 18.1323 5.4512 18.571 5.3528C19.4402 5.1576 20.3192 5.0168 21.1998 4.9248V4H19.9767C18.8523 4 17.9382 3.1032 17.9382 2C17.9382 0.8968 18.8523 0 19.9767 0H27.3153C28.4397 0 29.3546 0.8968 29.3546 2C29.3546 3.1032 28.4405 4 27.3161 4H26.093V4.9528C29.114 5.3008 31.9475 6.2504 34.4695 7.676C34.4778 7.68023 34.4862 7.68224 34.4946 7.68425C34.5037 7.68643 34.5128 7.68861 34.5217 7.6936C34.5304 7.69872 34.537 7.70543 34.5436 7.71216C34.5494 7.71805 34.5552 7.72395 34.5625 7.7288C35.9772 8.5376 37.2916 9.4952 38.4837 10.5816L40.2352 8.864L39.0814 7.732L42.5411 4.3384L46 7.732L42.5411 11.1264L41.3881 9.9952L39.6367 11.7128C40.744 12.8824 41.7192 14.1728 42.5435 15.56C42.5459 15.5633 42.5484 15.5663 42.5511 15.5692L42.5545 15.5727L42.5604 15.5784L42.5677 15.5855C42.572 15.5899 42.5761 15.5945 42.5794 15.6C42.5818 15.6044 42.5835 15.6088 42.5849 15.6133C42.5863 15.6177 42.5875 15.6223 42.5886 15.6268ZM43.6932 7.732L42.5403 6.6008L41.3865 7.732L42.5403 8.864L43.6932 7.732ZM22.8306 2.4V4.8168C22.8893 4.8144 22.9447 4.81373 23.0001 4.81306C23.0371 4.81261 23.0741 4.81216 23.1119 4.8112C23.1682 4.81019 23.2245 4.80804 23.2808 4.8059C23.3582 4.80295 23.4357 4.8 23.5131 4.8C23.5233 4.8 23.5335 4.8004 23.5437 4.8008C23.5539 4.8012 23.564 4.8016 23.5742 4.8016C23.5857 4.8016 23.5979 4.8012 23.6101 4.8008L23.6181 4.80054L23.6334 4.80014L23.646 4.8C23.9069 4.8 24.1776 4.8056 24.4614 4.8168V2.4H27.3153C27.5395 2.4 27.723 2.22 27.723 2C27.723 1.78 27.5395 1.6 27.3153 1.6H19.9767C19.7525 1.6 19.569 1.78 19.569 2C19.569 2.22 19.7525 2.4 19.9767 2.4H22.8306Z" fill="#E30C13"/>
    <path fill-rule="evenodd" clip-rule="evenodd" d="M26.4569 29.224C25.9546 29.9016 25.1808 30.3264 24.3319 30.3912C24.2553 30.3968 24.1795 30.4 24.1036 30.4C23.3363 30.4 22.5984 30.1024 22.0513 29.5648C21.4503 28.9752 21.1429 28.16 21.209 27.3272C21.275 26.4944 21.708 25.7352 22.3962 25.244L32.9523 17.7512C33.276 17.5224 33.7228 17.5568 34.0066 17.8344C34.2903 18.1128 34.3254 18.5512 34.0914 18.8688L26.4569 29.224ZM23.3543 26.5384C23.0542 26.7528 22.8634 27.0864 22.8349 27.452C22.8055 27.8168 22.9409 28.1752 23.2034 28.4336C23.4684 28.6936 23.8329 28.82 24.2039 28.796C24.5766 28.7672 24.9166 28.5808 25.1367 28.284L29.7934 21.968L23.3543 26.5384Z" fill="#E30C13"/>
    <path d="M16.3076 11.2H12.2307C11.7798 11.2 11.4153 11.5576 11.4153 12C11.4153 12.4424 11.7798 12.8 12.2307 12.8H16.3076C16.7585 12.8 17.123 12.4424 17.123 12C17.123 11.5576 16.7585 11.2 16.3076 11.2Z" fill="#E30C13"/>
    <path d="M8.15342 16.8H16.3074C16.7583 16.8 17.1227 17.1576 17.1227 17.6C17.1227 18.0424 16.7583 18.4 16.3074 18.4H8.15342C7.70251 18.4 7.33803 18.0424 7.33803 17.6C7.33803 17.1576 7.70251 16.8 8.15342 16.8Z" fill="#E30C13"/>
    <path d="M16.3079 22.4H4.07702C3.62611 22.4 3.26163 22.7576 3.26163 23.2C3.26163 23.6424 3.62611 24 4.07702 24H16.3079C16.7588 24 17.1233 23.6424 17.1233 23.2C17.1233 22.7576 16.7588 22.4 16.3079 22.4Z" fill="#E30C13"/>
    <path d="M0.815393 28H16.3079C16.7588 28 17.1233 28.3576 17.1233 28.8C17.1233 29.2424 16.7588 29.6 16.3079 29.6H0.815393C0.364481 29.6 0 29.2424 0 28.8C0 28.3576 0.364481 28 0.815393 28Z" fill="#E30C13"/>
    <path d="M16.3075 33.6H5.70741C5.2565 33.6 4.89202 33.9576 4.89202 34.4C4.89202 34.8424 5.2565 35.2 5.70741 35.2H16.3075C16.7584 35.2 17.1229 34.8424 17.1229 34.4C17.1229 33.9576 16.7584 33.6 16.3075 33.6Z" fill="#E30C13"/>
    <path d="M10.5994 39.2H16.3072C16.7581 39.2 17.1226 39.5576 17.1226 40C17.1226 40.4424 16.7581 40.8 16.3072 40.8H10.5994C10.1485 40.8 9.78404 40.4424 9.78404 40C9.78404 39.5576 10.1485 39.2 10.5994 39.2Z" fill="#E30C13"/>
    </svg>
</svg>