<?xml version="1.0" encoding="utf-8"?>
<!-- Generated by IcoMoon.io -->
<svg version="1.1" xmlns="http://www.w3.org/2000/svg" xmlns:xlink="http://www.w3.org/1999/xlink" width="752" height="32" viewBox="0 0 752 32">
<svg id="icon-close" width="16" height="32" viewBox="0 0 32 32" x="0" y="-8">
<path fill="#999" d="M12.791 15.954c-0.069-0.047-0.148-0.083-0.206-0.142-3.955-3.953-7.91-7.907-11.864-11.861-0.872-0.872-0.962-2.145-0.224-3.082 0.814-1.035 2.362-1.159 3.33-0.266 0.072 0.066 0.139 0.135 0.208 0.204 3.92 3.92 7.839 7.84 11.758 11.761 0.059 0.068 0.114 0.14 0.163 0.215l0.093 0.019c0.049-0.075 0.087-0.163 0.149-0.225 3.947-3.951 7.896-7.901 11.846-11.849 0.875-0.875 2.143-0.968 3.081-0.233 0.247 0.195 0.451 0.44 0.599 0.717s0.238 0.583 0.262 0.897c0.025 0.314-0.016 0.63-0.119 0.927s-0.267 0.571-0.48 0.802c-0.062 0.066-0.125 0.129-0.19 0.193-3.923 3.925-7.847 7.849-11.774 11.773-0.089 0.075-0.168 0.16-0.238 0.253 0.079 0.045 0.172 0.076 0.234 0.138 3.956 3.952 7.911 7.906 11.864 11.861 0.864 0.864 0.954 2.13 0.226 3.066-0.195 0.248-0.438 0.453-0.716 0.602s-0.583 0.239-0.897 0.265c-0.314 0.026-0.63-0.014-0.928-0.116s-0.571-0.265-0.803-0.478c-0.066-0.061-0.129-0.125-0.193-0.19-3.92-3.92-7.839-7.84-11.758-11.76-0.064-0.064-0.118-0.136-0.197-0.227-0.083 0.080-0.145 0.14-0.208 0.201-3.954 3.954-7.908 7.908-11.862 11.862-0.872 0.871-2.144 0.959-3.082 0.223-1.035-0.815-1.157-2.366-0.261-3.335 0.061-0.066 0.125-0.129 0.19-0.193 3.929-3.93 7.859-7.859 11.789-11.788 0.058-0.058 0.138-0.094 0.208-0.14l-0.002-0.094z"></path>
</svg>
<svg id="icon-arrow-down" width="16" height="10" viewBox="0 0 32 32" x="48" y="0">
<path d="M15.994 18.535c0.077-0.073 0.138-0.129 0.198-0.187 3.6-3.655 7.199-7.31 10.798-10.965 1.192-1.21 2.869-1.311 4.037-0.247 1.236 1.126 1.31 3.047 0.131 4.262-1.655 1.706-3.33 3.389-4.995 5.083-2.663 2.704-5.325 5.408-7.988 8.113-0.586 0.596-1.263 0.984-2.099 1.006-0.885 0.023-1.609-0.357-2.23-0.988-1.949-1.982-3.898-3.962-5.849-5.941-2.344-2.381-4.689-4.762-7.033-7.143-1.068-1.086-1.267-2.605-0.506-3.8 0.989-1.558 3.121-1.787 4.436-0.459 2.416 2.44 4.826 4.886 7.23 7.338 1.279 1.301 2.564 2.604 3.87 3.928z"></path>
</svg>
<svg id="icon-arrow-left-big" width="14" height="20" viewBox="0 0 32 32" x="96" y="0">
<path fill="#999" d="M12.309 16.017c0.125 0.088 0.208 0.13 0.271 0.193 3.946 3.943 7.89 7.888 11.834 11.833 0.84 0.84 0.967 2.051 0.317 2.981-0.183 0.263-0.42 0.484-0.694 0.649s-0.581 0.271-0.899 0.31c-0.318 0.039-0.641 0.011-0.947-0.083s-0.589-0.251-0.831-0.462c-0.073-0.064-0.142-0.133-0.211-0.201-4.51-4.509-9.019-9.019-13.527-13.529-1.017-1.018-1.021-2.39-0.008-3.403 4.524-4.525 9.048-9.049 13.572-13.573 0.729-0.729 1.704-0.926 2.6-0.53 1.392 0.614 1.8 2.418 0.806 3.57-0.077 0.089-0.161 0.173-0.244 0.256-3.915 3.916-7.83 7.83-11.746 11.743-0.068 0.070-0.148 0.125-0.292 0.247z"></path>
</svg>
<svg id="icon-attach" width="17" height="18" viewBox="0 0 32 32" x="144" y="0">
<path d="M1.333 22.201c0.048-2.817 0.949-5.184 2.843-7.147 4.189-4.345 8.385-8.683 12.586-13.017 1.473-1.515 3.305-2.209 5.418-2.002 2.337 0.228 4.087 1.429 5.257 3.431 1.609 2.753 1.194 6.268-1.011 8.577-2.341 2.453-4.712 4.878-7.070 7.316-1.842 1.904-3.685 3.809-5.527 5.713-0.601 0.622-1.32 1.034-2.175 1.19-1.661 0.304-3.3-0.424-4.185-1.85-1.074-1.728-0.833-3.913 0.585-5.378 3.846-3.971 7.691-7.944 11.534-11.918 0.708-0.732 1.86-0.536 2.243 0.391 0.242 0.587 0.144 1.134-0.301 1.598-1.057 1.101-2.118 2.199-3.183 3.293-2.787 2.88-5.573 5.76-8.36 8.64-0.453 0.468-0.574 1.076-0.331 1.636 0.391 0.901 1.523 1.124 2.213 0.424 0.921-0.937 1.829-1.887 2.743-2.831 3.284-3.394 6.566-6.787 9.848-10.181 1.637-1.695 1.603-4.429-0.066-6.079-1.593-1.576-4.11-1.582-5.685 0.016s-3.119 3.219-4.676 4.83c-2.649 2.74-5.296 5.481-7.943 8.224-1.51 1.574-2.173 3.473-1.982 5.633 0.215 2.427 1.369 4.32 3.486 5.569 2.61 1.541 5.927 1.089 8.068-1.088 2.11-2.146 4.188-4.323 6.28-6.489 2.115-2.187 4.229-4.375 6.343-6.563 0.39-0.403 0.854-0.565 1.399-0.402 0.995 0.296 1.315 1.575 0.586 2.346-0.648 0.685-1.308 1.359-1.964 2.037-3.558 3.681-7.117 7.361-10.677 11.040-1.455 1.5-3.228 2.439-5.305 2.731-3.202 0.449-5.945-0.522-8.192-2.815-1.576-1.611-2.455-3.57-2.719-5.799-0.044-0.396-0.058-0.793-0.078-1.078z"></path>
</svg>
<svg id="icon-mail" width="18" height="15" viewBox="0 0 32 32" x="192" y="0">
<path fill="#999" d="M16.003 2.674c3.811 0 7.622 0.021 11.433-0.007 2.392-0.018 4.173 1.651 4.503 3.748 0.055 0.351 0.055 0.713 0.055 1.069 0.003 5.758 0.005 11.516 0.005 17.273 0 1.121-0.311 2.133-1.043 3.001-0.876 1.039-2.014 1.569-3.396 1.569-5.679 0.003-11.358 0.003-17.037 0-1.996 0-3.992-0.022-5.987 0.006-2.325 0.034-4.141-1.612-4.479-3.751-0.039-0.281-0.057-0.566-0.052-0.85-0.003-5.752-0.005-11.504-0.007-17.256 0-0.701 0.052-1.387 0.33-2.037 0.655-1.526 1.804-2.461 3.491-2.724 0.236-0.031 0.475-0.045 0.714-0.040 3.823-0.002 7.646-0.003 11.469-0.001zM29.095 9.966c-0.080 0.054-0.128 0.085-0.175 0.118l-11.981 8.536c-0.644 0.459-1.232 0.46-1.874 0.003-3.994-2.845-7.987-5.69-11.981-8.535-0.050-0.034-0.102-0.068-0.178-0.117v14.752c0 0.085 0 0.171 0.003 0.255 0.038 0.766 0.689 1.391 1.466 1.391 7.749 0.002 15.498 0.002 23.247 0 0.196 0.002 0.39-0.036 0.569-0.111s0.341-0.188 0.473-0.328c0.314-0.321 0.433-0.71 0.433-1.151-0.004-4.87-0.004-9.741-0.002-14.611v-0.201zM28.941 6.457c-0.305-0.526-0.731-0.818-1.335-0.818-7.737-0.001-15.473-0.001-23.209 0-0.516 0-0.917 0.218-1.214 0.624-0.137 0.187-0.135 0.189 0.057 0.325 4.2 2.992 8.399 5.985 12.597 8.979 0.125 0.089 0.199 0.092 0.326 0 3.995-2.852 7.992-5.702 11.991-8.548l0.788-0.562z"></path>
</svg>
<svg id="icon-phone" width="18" height="18" viewBox="0 0 32 32" x="240" y="0">
<path fill="#666" d="M12.042 13.229c1.719 2.69 4.005 4.974 6.698 6.692 0.042-0.035 0.082-0.070 0.118-0.105 0.307-0.305 0.605-0.619 0.92-0.915 1.327-1.248 2.868-1.617 4.596-1.024 1.308 0.45 2.655 0.781 4.023 0.987 1.786 0.269 3.295 1.82 3.541 3.604 0.040 0.301 0.059 0.604 0.059 0.907 0.006 1.39 0.003 2.779 0.003 4.169 0 1.953-1.156 3.6-2.961 4.225-0.7 0.242-1.416 0.275-2.145 0.186-6.114-0.736-11.866-3.29-16.51-7.33s-7.963-9.381-9.53-15.329c-0.389-1.478-0.666-2.984-0.829-4.503-0.239-2.218 1.354-4.33 3.554-4.711 0.282-0.048 0.567-0.073 0.854-0.075 1.45-0.007 2.9-0.008 4.35-0.002 2.187 0.013 3.964 1.492 4.334 3.644 0.185 1.083 0.386 2.157 0.722 3.204 0.16 0.499 0.362 0.992 0.452 1.504 0.258 1.474-0.171 2.757-1.205 3.835-0.336 0.348-0.686 0.684-1.041 1.038zM29.075 25.399c0-0.741 0.005-1.483 0-2.224-0.006-0.751-0.497-1.341-1.239-1.448-1.521-0.217-3.015-0.59-4.46-1.113-0.572-0.208-1.097-0.077-1.533 0.352-0.596 0.586-1.183 1.18-1.775 1.77-0.546 0.544-1.223 0.636-1.886 0.253-3.888-2.244-6.956-5.308-9.204-9.189-0.386-0.666-0.295-1.338 0.251-1.884 0.566-0.566 1.128-1.136 1.7-1.696 0.511-0.5 0.636-1.070 0.386-1.741-0.512-1.379-0.867-2.811-1.060-4.269-0.102-0.763-0.709-1.293-1.48-1.294-1.462-0.002-2.923-0.002-4.385 0-0.207-0-0.411 0.043-0.6 0.127s-0.358 0.207-0.495 0.361c-0.138 0.154-0.241 0.335-0.304 0.532s-0.082 0.405-0.059 0.61c0.185 1.644 0.483 3.267 0.982 4.845 2.621 8.296 7.921 14.196 15.9 17.699 2.39 1.044 4.903 1.654 7.491 1.984 0.922 0.117 1.819-0.526 1.775-1.573-0.029-0.701-0.006-1.403-0.006-2.104z"></path>
</svg>
</svg>
