<svg width="16" height="12" viewBox="0 0 16 12" fill="none" xmlns="http://www.w3.org/2000/svg">
<path d="M5.35164 9.78268C5.37126 9.75255 5.38699 9.71804 5.4113 9.69279C8.42537 6.56195 11.4398 3.43172 14.4545 0.30211C14.7557 -0.0104692 15.1594 -0.0863838 15.5154 0.101972C16.0322 0.375163 16.1619 1.08516 15.7766 1.53459C15.7569 1.55765 15.7359 1.57953 15.7149 1.60192C12.471 4.96976 9.22704 8.33795 5.98309 11.7065C5.65156 12.0507 5.17494 12.0966 4.8105 11.8206C4.76925 11.7889 4.73039 11.754 4.69426 11.7162C3.22095 10.1867 1.74796 8.65732 0.275289 7.12803C0.0269268 6.86965 -0.0565633 6.55875 0.0377886 6.20897C0.129709 5.86828 0.351808 5.64996 0.68285 5.56681C1.00708 5.48534 1.29257 5.57775 1.52877 5.82216C2.10094 6.41422 2.67224 7.00717 3.24267 7.60102C3.91708 8.30125 4.59132 9.00165 5.2654 9.70222C5.28484 9.7258 5.30236 9.75103 5.31776 9.77763L5.35164 9.78268Z" fill="#4CAF50"/>
</svg>
